# xmcd
#
# Track frame offsets: 
#        150
#        22754
#        44985
#        63594
#        83343
#        103366
#        124727
#        144297
#        162541
#        180483
#        196639
#        212185
#
# Disc length: 3094 seconds
#
# Revision: 0
# Processed by: cddbd v1.5.2PL0 Copyright (c) Steve Scherf et al.
# Submitted via: ExactAudioCopyFreeDBPlugin 1.0
#
DISCID=a40c140c
DTITLE=陆萍 - LOVE IS C60
DYEAR=1900
DGENRE=
TTITLE0=念亲恩
TTITLE1=堆积感情
TTITLE2=有谁共鸣
TTITLE3=雨丝情愁
TTITLE4=逝去的诺言
TTITLE5=一双旧皮鞋
TTITLE6=胭脂扣
TTITLE7=月半弯
TTITLE8=明日话今天
TTITLE9=双星情歌
TTITLE10=天长地久
TTITLE11=天意人心
EXTD=
EXTT0=
EXTT1=
EXTT2=
EXTT3=
EXTT4=
EXTT5=
EXTT6=
EXTT7=
EXTT8=
EXTT9=
EXTT10=
EXTT11=
PLAYORDER=
